<svg xmlns="http://www.w3.org/2000/svg" viewBox="0 0 64 64" width="64" height="64" role="img" aria-label="Villa Areka">
  <rect width="64" height="64" rx="14" fill="#12251b"/>
  <g transform="translate(-1 5.6) scale(0.8)" fill="none" stroke="#d2a24c" stroke-width="2.2" stroke-linecap="round" stroke-linejoin="round">
    <path d="M32 60C32 44 33 24 44 6"/>
    <path d="M40 14c-4 1-7 4-8 9M45 12c4-1 8 0 11 3"/>
    <path d="M38 22c-5 1-8 5-9 10M43 20c5-1 9 1 12 5"/>
    <path d="M36 32c-5 2-8 6-9 12M41 30c5 0 9 3 11 8"/>
    <path d="M34 44c-5 2-7 6-8 11M39 42c5 1 8 4 10 9"/>
  </g>
</svg>
